<?xml version="1.0" standalone="no"?>
<!DOCTYPE svg PUBLIC "-//W3C//DTD SVG 20010904//EN"
 "http://www.w3.org/TR/2001/REC-SVG-20010904/DTD/svg10.dtd">
<svg version="1.0" xmlns="http://www.w3.org/2000/svg"
 width="200.000000pt" height="200.000000pt" viewBox="0 0 200.000000 200.000000"
 preserveAspectRatio="xMidYMid meet">
<metadata>
Created by potrace 1.14, written by Peter Selinger 2001-2017
</metadata>
<g transform="translate(0.000000,200.000000) scale(0.100000,-0.100000)"
fill="#000000" stroke="none">
<path d="M825 1926 c-363 -71 -649 -337 -747 -697 -33 -121 -32 -346 1 -469
90 -335 346 -591 681 -681 123 -33 347 -33 470 0 335 90 591 346 681 681 33
123 33 347 0 470 -89 332 -347 591 -676 680 -103 28 -309 36 -410 16z m-5
-562 l51 -15 -7 -107 c-4 -59 -7 -108 -8 -109 0 -1 -37 51 -81 115 -73 106
-83 117 -114 120 -79 8 -131 -33 -131 -102 0 -58 30 -101 101 -144 204 -123
248 -165 265 -250 34 -167 -133 -276 -370 -243 -47 6 -98 16 -115 22 l-31 11
1 91 c1 147 3 147 100 11 77 -109 88 -119 119 -122 87 -9 160 46 160 119 0 78
-35 116 -176 195 -158 88 -209 162 -185 268 6 26 20 61 31 76 23 32 88 66 151
80 56 11 173 4 239 -16z m804 -106 c-4 -68 -8 -124 -9 -126 -2 -2 -38 48 -82
110 -74 107 -81 113 -116 116 l-37 3 0 -345 0 -345 43 -20 42 -19 -170 0 -170
0 43 19 42 20 0 345 0 345 -37 -3 c-35 -3 -42 -9 -108 -105 -100 -146 -95
-144 -95 -23 0 58 -3 115 -6 128 l-6 22 336 0 337 0 -7 -122z"/>
</g>
</svg>
